<svg width="133" height="154" viewBox="0 0 133 154" fill="none" xmlns="http://www.w3.org/2000/svg">
<path d="M54.5635 -44.8064C54.2084 -43.7832 53.8496 -42.7607 53.4871 -41.739C35.9768 7.24724 3.31329 51.8386 -39.8694 85.7087L-40.7258 86.3807L-2.4839 90.1828L-8.73449 58.3034L29.045 56.8499L19.3179 24.6248L59.261 21.6498L40.4172 -9.74516L74.2579 -16.7999L54.5635 -44.8064Z" fill="#93CAE2"/>
<path d="M-28.9453 103.211C-27.8812 103.083 -26.8171 102.949 -25.7529 102.808C24.7849 96.2998 73.9966 74.4833 114.469 40.6445L115.264 39.9768L113.407 75.6572L82.5066 63.9022L75.3134 99.6547L47.4271 82.9897L34.5938 119.918L8.40865 96.4759L-4.887 128.149L-28.9431 103.209" fill="#FBCC34"/>
<path d="M85.372 31.1911C87.7618 29.5106 88.5234 26.4764 87.0732 24.414C85.6229 22.3517 82.5099 22.0422 80.1201 23.7227C77.7303 25.4033 76.9686 28.4375 78.4189 30.4998C79.8691 32.5622 82.9821 32.8717 85.372 31.1911Z" fill="#FBCC34"/>
<path d="M13.4198 140.388C15.8096 138.708 16.5713 135.674 15.121 133.611C13.6708 131.549 10.5578 131.239 8.16797 132.92C5.77815 134.601 5.01648 137.635 6.46674 139.697C7.91699 141.759 11.03 142.069 13.4198 140.388Z" fill="#06AAE9"/>
<path d="M-13.4301 45.679L-11.7291 38.9028L-6.81237 39.3916L-8.51339 46.1679L-13.4301 45.679ZM66.7795 -1.1956L67.9825 -5.98783L74.9347 -5.29662L73.7317 -0.50438L66.7795 -1.1956Z" fill="#7AC943"/>
<path d="M40.251 40.5977L44.5781 37.5548L48.517 43.156L44.1899 46.1989L40.251 40.5977Z" fill="#FF1D25"/>
<path d="M67.8424 55.4935L69.5434 48.7173L74.4601 49.2061L72.7591 55.9823L67.8424 55.4935Z" fill="#7AC943"/>
<path d="M10.7475 80.0605L11.9505 75.2682L18.9027 75.9594L17.6997 80.7517L10.7475 80.0605Z" fill="#06AAE9"/>
<path d="M50.5889 105.879L54.916 102.836L58.8549 108.437L54.5277 111.48L50.5889 105.879Z" fill="#7AC943"/>
<path d="M9.64591 119.902L10.8489 115.11L17.8011 115.801L16.5981 120.593L9.64591 119.902Z" fill="#06AAE9"/>
<path d="M24.3971 136.275L26.0981 129.499L31.0148 129.987L29.3138 136.764L24.3971 136.275Z" fill="#FF1D25"/>
<path d="M90.1637 87.2357L91.8647 80.4594L96.7814 80.9483L95.0804 87.7245L90.1637 87.2357Z" fill="#06AAE9"/>
</svg>
