<svg width="136" height="155" viewBox="0 0 136 155" fill="none" xmlns="http://www.w3.org/2000/svg">
<g clip-path="url(#clip0_963_1759)">
<path d="M186.581 46.3101C185.595 46.364 184.608 46.4145 183.622 46.4615C136.287 48.5979 89.4817 35.7743 49.8462 9.81013L49.0599 9.2953L54.1885 44.4307L81.0707 27.4581L90.7573 60.2971L117.173 40.1303L128.69 74.3332L152.343 46.4143L166.122 73.7627L186.581 46.3101Z" fill="#93CAE2"/>
<path d="M36.7529 25.7441C37.1025 26.638 37.4582 27.5294 37.8202 28.4183C54.8251 70.7076 85.1113 106.326 124.117 129.909L124.886 130.37L92.8304 141.549L96.3865 110.04L63.0813 116.532L71.6617 85.92L36.0601 87.8544L51.0287 56.3099L19.9852 55.9479L36.7548 25.7455" fill="#FBCC34"/>
<path d="M126.032 100.818C128.053 102.325 130.913 101.907 132.42 99.8857C133.927 97.8641 133.509 95.004 131.488 93.4974C129.466 91.9909 126.606 92.4083 125.099 94.4299C123.593 96.4515 124.01 99.3116 126.032 100.818Z" fill="#FBCC34"/>
<path d="M13.2007 76.5115C15.2222 78.0181 18.0823 77.6006 19.5889 75.579C21.0955 73.5575 20.678 70.6974 18.6565 69.1908C16.6349 67.6842 13.7748 68.1017 12.2682 70.1232C10.7616 72.1448 11.1791 75.0049 13.2007 76.5115Z" fill="#06AAE9"/>
<path d="M91.9477 1.40408C93.9693 2.91065 96.8294 2.49317 98.336 0.471612C99.8426 -1.54995 99.4251 -4.41007 97.4035 -5.91664C95.382 -7.42321 92.5218 -7.00573 91.0153 -4.98417C89.5087 -2.96261 89.9262 -0.102495 91.9477 1.40408Z" fill="#ED1C24"/>
<path d="M125.424 7.25951L131.811 6.32716L132.471 10.8445L126.083 11.7768L125.424 7.25951Z" fill="#06AAE9"/>
<path d="M91.2226 18.7751L97.6101 17.8428L98.2695 22.3601L91.882 23.2924L91.2226 18.7751ZM150.621 72.7639L155.139 72.1045L156.071 78.492L151.554 79.1513L150.621 72.7639Z" fill="#7AC943"/>
<path d="M107.66 64.3535L111.321 67.0814L107.229 72.5719L103.568 69.8441L107.66 64.3535Z" fill="#FF1D25"/>
<path d="M100.584 94.0701L106.971 93.1377L107.631 97.655L101.243 98.5873L100.584 94.0701Z" fill="#7AC943"/>
<path d="M66.1062 52.477L70.6235 51.8176L71.5558 58.2051L67.0385 58.8645L66.1062 52.477Z" fill="#06AAE9"/>
<path d="M52.0654 96.9355L55.7258 99.6634L51.6339 105.154L47.9736 102.426L52.0654 96.9355Z" fill="#7AC943"/>
<path d="M30.529 65.8188L35.0463 65.1594L35.9787 71.5469L31.4614 72.2063L30.529 65.8188Z" fill="#06AAE9"/>
<path d="M19.2871 84.7263L25.6746 83.794L26.3339 88.3112L19.9465 89.2436L19.2871 84.7263Z" fill="#FF1D25"/>
<path d="M77.3955 125.183L83.783 124.251L84.4423 128.768L78.0549 129.701L77.3955 125.183Z" fill="#06AAE9"/>
</g>
<defs>
<clipPath id="clip0_963_1759">
<rect width="134" height="134" fill="white" transform="translate(80.0732 -33.0645) rotate(36.6954)"/>
</clipPath>
</defs>
</svg>
