<svg width="40" height="40" viewBox="0 0 40 40" fill="none" xmlns="http://www.w3.org/2000/svg">
    <rect x="0.5" y="0.5" width="39" height="39" rx="19.5" fill="white"/>
<!--    <rect x="0.5" y="0.5" width="39" height="39" rx="19.5" stroke="#FD7839"/>-->
    <path d="M18.2666 29.0371C18.4421 29.3337 18.6946 29.58 18.9986 29.7512C19.3027 29.9225 19.6475 30.0126 19.9986 30.0126C20.3497 30.0126 20.6945 29.9225 20.9986 29.7512C21.3026 29.58 21.5551 29.3337 21.7306 29.0371" stroke="#FD7839" stroke-width="2" stroke-linecap="round" stroke-linejoin="round"/>
    <path d="M11.2613 23.501C11.1306 23.6407 11.0444 23.8144 11.0131 24.001C10.9818 24.1876 11.0068 24.3791 11.085 24.5521C11.1632 24.7251 11.2912 24.8723 11.4535 24.9756C11.6158 25.0789 11.8054 25.134 11.9993 25.1341H27.9993C28.1931 25.1342 28.3827 25.0793 28.5451 24.9762C28.7076 24.8731 28.8358 24.7261 28.9142 24.5532C28.9926 24.3803 29.0178 24.1889 28.9867 24.0022C28.9557 23.8156 28.8697 23.6418 28.7393 23.502C27.4093 22.1644 25.9993 20.7429 25.9993 16.3537C25.9993 14.8012 25.3671 13.3123 24.2419 12.2145C23.1167 11.1167 21.5906 10.5 19.9993 10.5C18.408 10.5 16.8818 11.1167 15.7566 12.2145C14.6314 13.3123 13.9993 14.8012 13.9993 16.3537C13.9993 20.7429 12.5883 22.1644 11.2613 23.501Z" stroke="#FD7839" stroke-width="2" stroke-linecap="round" stroke-linejoin="round"/>
</svg>
