<svg width="211" height="41" viewBox="0 0 211 41" fill="none" xmlns="http://www.w3.org/2000/svg">
    <path d="M11.0844 29.9553L7.55497 25.3244L6.77453 25.4405L7.52485 30.4848L4.26985 30.969L2.28221 17.6064L7.74528 16.7937C8.79855 16.6371 9.72057 16.688 10.5113 16.9465C11.3148 17.2032 11.9486 17.6277 12.4129 18.2202C12.8753 18.7999 13.165 19.4832 13.2821 20.27C13.4142 21.1583 13.2784 21.9892 12.8746 22.7626C12.4835 23.5342 11.8211 24.1386 10.8874 24.5758L14.7582 29.4089L11.0844 29.9553ZM6.43193 23.1373L8.44965 22.8371C9.04608 22.7484 9.46852 22.5364 9.71698 22.2011C9.97812 21.864 10.0691 21.4289 9.98978 20.8959C9.91428 20.3883 9.70254 20.0112 9.35456 19.7646C9.01927 19.5162 8.55342 19.4363 7.95698 19.525L5.93927 19.8252L6.43193 23.1373Z" fill="white"/>
    <path d="M25.9749 16.117L26.301 18.8302L30.6765 18.3043L30.9797 20.8264L26.6042 21.3523L26.9579 24.2948L31.9066 23.7L32.2212 26.3176L24.0052 27.3052L22.393 13.8921L30.609 12.9045L30.9236 15.5222L25.9749 16.117Z" fill="white"/>
    <path d="M58.6268 10.0703L56.4327 23.858L52.4679 24.2445L49.4599 15.6047L48.1009 24.6703L44.1361 25.0569L39.4157 11.9435L42.9208 11.6017L45.8096 21.2006L47.2495 11.1797L50.8504 10.8286L54.1032 20.392L55.1025 10.414L58.6268 10.0703Z" fill="white"/>
    <path d="M74.3048 18.9427L69.2748 19.2911L68.6334 21.7276L65.1968 21.9656L69.1397 8.15051L72.941 7.8872L78.751 21.0267L75.276 21.2675L74.3048 18.9427ZM73.2845 16.467L71.2725 11.6487L69.9632 16.6971L73.2845 16.467Z" fill="white"/>
    <path d="M95.0813 21.9574L92.055 16.9831L91.2667 17.017L91.4859 22.1121L88.1981 22.2535L87.6175 8.75639L93.1356 8.51902C94.1994 8.47325 95.1111 8.62024 95.8705 8.95997C96.6427 9.29916 97.2288 9.78761 97.6286 10.4253C98.0279 11.0502 98.2446 11.76 98.2788 12.5547C98.3174 13.452 98.0955 14.2641 97.6131 14.9912C97.1436 15.7176 96.4216 16.2495 95.4474 16.5868L98.792 21.7978L95.0813 21.9574ZM91.1666 14.6906L93.2046 14.6029C93.8071 14.577 94.2494 14.4103 94.5315 14.1028C94.8264 13.7948 94.9623 13.3716 94.9392 12.8332C94.9171 12.3205 94.7459 11.9234 94.4256 11.6418C94.1181 11.3597 93.6632 11.2316 93.0607 11.2575L91.0227 11.3452L91.1666 14.6906Z" fill="white"/>
    <path d="M112.93 7.99079C114.353 7.95885 115.604 8.21312 116.681 8.7536C117.758 9.29408 118.597 10.0709 119.197 11.0841C119.81 12.0841 120.131 13.2511 120.161 14.5851C120.191 15.9062 119.922 17.0864 119.355 18.1258C118.801 19.1648 117.992 19.9786 116.927 20.5672C115.875 21.1554 114.644 21.4654 113.233 21.497L108.173 21.6105L107.87 8.1043L112.93 7.99079ZM112.957 18.6543C114.201 18.6264 115.162 18.2648 115.839 17.5694C116.517 16.8741 116.842 15.9043 116.814 14.6602C116.786 13.416 116.418 12.4554 115.71 11.7783C115.001 11.1012 114.025 10.7766 112.781 10.8045L111.223 10.8395L111.399 18.6893L112.957 18.6543Z" fill="white"/>
    <path d="M144.445 9.20841L144.27 11.8391L138.778 11.4742L138.589 14.3161L142.699 14.5891L142.529 17.143L138.42 16.87L138.057 22.3234L134.774 22.1052L135.669 8.62527L144.445 9.20841Z" fill="white"/>
    <path d="M157.043 11.2364L156.297 19.2845C156.222 20.0893 156.362 20.7273 156.718 21.1984C157.074 21.6695 157.635 21.9406 158.401 22.0117C159.168 22.0828 159.776 21.9202 160.225 21.5238C160.674 21.1273 160.936 20.5267 161.011 19.7219L161.757 11.6738L165.034 11.9779L164.289 20.0068C164.178 21.2076 163.828 22.1995 163.24 22.9825C162.652 23.7654 161.904 24.3274 160.996 24.6683C160.101 25.0105 159.123 25.1324 158.063 25.034C157.003 24.9356 156.07 24.6429 155.265 24.1559C154.474 23.6573 153.874 22.9702 153.465 22.0948C153.058 21.2067 152.91 20.1622 153.022 18.9613L153.767 10.9324L157.043 11.2364Z" fill="white"/>
    <path d="M185.068 27.8823L181.802 27.4834L177.348 18.5449L176.338 26.8164L173.072 26.4175L174.709 13.0075L177.976 13.4063L182.424 22.383L183.439 14.0734L186.706 14.4722L185.068 27.8823Z" fill="white"/>
    <path d="M201.905 17.6254C203.313 17.8401 204.5 18.3069 205.468 19.0255C206.435 19.7442 207.127 20.6543 207.543 21.7561C207.974 22.847 208.088 24.052 207.887 25.371C207.688 26.6774 207.219 27.7933 206.481 28.719C205.755 29.6465 204.817 30.3081 203.667 30.7036C202.529 31.101 201.262 31.1933 199.867 30.9804L194.864 30.2171L196.901 16.862L201.905 17.6254ZM200.087 28.1329C201.318 28.3206 202.327 28.1306 203.114 27.5629C203.901 26.9952 204.389 26.0962 204.577 24.866C204.764 23.6357 204.568 22.6259 203.988 21.8366C203.407 21.0472 202.502 20.5587 201.272 20.371L199.731 20.1359L198.547 27.8978L200.087 28.1329Z" fill="white"/>
</svg>
