<svg width="210" height="39" viewBox="0 0 210 39" fill="none" xmlns="http://www.w3.org/2000/svg">
    <path d="M9.12458 29.8537C8.14744 29.9991 7.24824 29.9707 6.42695 29.7686C5.60567 29.5665 4.91402 29.1895 4.35199 28.6375C3.80266 28.0836 3.45018 27.3708 3.29456 26.4989L6.75894 25.9836C6.88332 26.471 7.11126 26.8262 7.44277 27.0493C7.77239 27.2597 8.17197 27.3299 8.6415 27.2601C9.12372 27.1884 9.48838 27.0239 9.73547 26.7666C9.98067 26.4967 10.074 26.165 10.0155 25.7716C9.96643 25.4417 9.81163 25.1858 9.55112 25.0041C9.3033 24.8204 9.00404 24.6833 8.65334 24.5928C8.31532 24.5004 7.83489 24.4098 7.21203 24.3208C6.30946 24.1827 5.56553 24.021 4.98022 23.8356C4.39491 23.6503 3.86686 23.3268 3.39608 22.865C2.92529 22.4032 2.62761 21.7535 2.50303 20.916C2.31805 19.6724 2.62414 18.6346 3.42132 17.8026C4.2166 16.9579 5.33758 16.428 6.78424 16.2128C8.25629 15.9939 9.49566 16.1727 10.5024 16.7493C11.5072 17.3133 12.1347 18.2187 12.3851 19.4655L8.86357 19.9894C8.77401 19.5617 8.56537 19.249 8.23763 19.0513C7.90801 18.8409 7.51478 18.7697 7.05793 18.8376C6.66454 18.8961 6.36334 19.0512 6.15432 19.3028C5.94341 19.5417 5.86721 19.8578 5.92572 20.2512C5.9899 20.6827 6.24296 20.9888 6.68491 21.1695C7.12686 21.3502 7.80005 21.516 8.7045 21.6668C9.61084 21.8303 10.3503 22.0057 10.9229 22.1929C11.5083 22.3782 12.0354 22.6954 12.5043 23.1445C12.9731 23.5936 13.2671 24.2179 13.386 25.0173C13.4992 25.7787 13.4054 26.4996 13.1045 27.1799C12.8163 27.8584 12.3316 28.4363 11.6503 28.9138C10.969 29.3913 10.1271 29.7046 9.12458 29.8537Z" fill="white"/>
    <path d="M21.4243 13.891L22.3888 21.9159C22.4853 22.7184 22.757 23.3125 23.2039 23.6981C23.6509 24.0838 24.2565 24.2306 25.0208 24.1388C25.785 24.0469 26.345 23.7599 26.7005 23.2778C27.0561 22.7958 27.1856 22.1535 27.0892 21.351L26.1246 13.3261L29.3919 12.9333L30.3541 20.9391C30.4981 22.1365 30.365 23.1798 29.955 24.069C29.545 24.9582 28.9322 25.6651 28.1166 26.1895C27.3136 26.7125 26.3836 27.0375 25.3263 27.1646C24.2691 27.2916 23.2956 27.2019 22.4059 26.8953C21.5274 26.5745 20.7964 26.0292 20.2128 25.2594C19.6277 24.4769 19.2632 23.4869 19.1193 22.2896L18.157 14.2838L21.4243 13.891Z" fill="white"/>
    <path d="M45.9792 14.3133C46.0551 15.0923 45.9461 15.8248 45.6521 16.5108C45.3568 17.1842 44.8581 17.7548 44.1561 18.2229C43.4541 18.691 42.554 18.9785 41.4559 19.0856L39.4256 19.2836L39.8962 24.1103L36.6209 24.4296L35.3099 10.9838L40.6155 10.4664C41.6881 10.3619 42.6128 10.4586 43.3895 10.7567C44.1662 11.0548 44.7714 11.5114 45.2052 12.1265C45.639 12.7416 45.897 13.4706 45.9792 14.3133ZM40.9529 16.505C41.5786 16.444 42.0303 16.2517 42.3082 15.9281C42.586 15.6045 42.6988 15.1746 42.6465 14.6383C42.5942 14.102 42.4005 13.7019 42.0654 13.4381C41.7303 13.1743 41.2499 13.0729 40.6242 13.1339L38.8429 13.3076L39.1716 16.6787L40.9529 16.505Z" fill="white"/>
    <path d="M62.6634 13.1229C62.7175 13.9036 62.588 14.6328 62.2748 15.3103C61.9608 15.9751 61.4463 16.5316 60.7315 16.9798C60.0166 17.428 59.1088 17.6902 58.0081 17.7664L55.9731 17.9074L56.3082 22.7454L53.0253 22.9728L52.0917 9.49548L57.4097 9.12711C58.4848 9.05263 59.4064 9.17527 60.1744 9.49502C60.9425 9.81477 61.5347 10.2882 61.9511 10.9152C62.3675 11.5422 62.6049 12.2781 62.6634 13.1229ZM57.5777 15.1727C58.2048 15.1293 58.6618 14.9497 58.9486 14.6341C59.2354 14.3184 59.3601 13.8918 59.3229 13.3543C59.2857 12.8167 59.1033 12.4114 58.7757 12.1383C58.4481 11.8652 57.9708 11.7503 57.3436 11.7938L55.5582 11.9175L55.7922 15.2964L57.5777 15.1727Z" fill="white"/>
    <path d="M75.0754 21.4768C73.8065 21.5314 72.6274 21.2868 71.5381 20.7429C70.4617 20.1985 69.5868 19.4143 68.9136 18.3902C68.2525 17.3528 67.8936 16.174 67.8368 14.8538C67.7801 13.5335 68.0367 12.3347 68.6067 11.2571C69.1896 10.1791 69.9939 9.3226 71.0196 8.68777C72.0581 8.05239 73.2118 7.7074 74.4808 7.65281C75.7497 7.59823 76.9224 7.84313 77.9988 8.38754C79.0881 8.93139 79.9565 9.71589 80.6042 10.741C81.2647 11.7656 81.6233 12.938 81.6801 14.2583C81.7369 15.5785 81.4805 16.7838 80.911 17.8741C80.341 18.9517 79.5431 19.8079 78.5174 20.4427C77.4917 21.0775 76.3444 21.4222 75.0754 21.4768ZM74.9464 18.4774C76.0231 18.4311 76.8665 18.0353 77.4765 17.2899C78.0993 16.544 78.3854 15.5814 78.3346 14.4022C78.2833 13.2101 77.9157 12.2757 77.2317 11.5988C76.5599 10.9086 75.6857 10.5866 74.609 10.633C73.5194 10.6798 72.663 11.0698 72.0396 11.8029C71.4291 12.5355 71.1497 13.5042 71.2015 14.709C71.2528 15.9011 71.6143 16.8422 72.2861 17.5325C72.9701 18.2093 73.8569 18.5243 74.9464 18.4774Z" fill="white"/>
    <path d="M96.2636 21.1064L93.3402 16.0709L92.5514 16.0886L92.6657 21.1871L89.3758 21.2609L89.0728 7.75469L94.5945 7.63082C95.6591 7.60694 96.5676 7.77263 97.3199 8.12791C98.085 8.4829 98.6608 8.9833 99.0475 9.6291C99.4338 10.2621 99.6359 10.9762 99.6538 11.7714C99.6739 12.6693 99.4354 13.4767 98.9381 14.1936C98.4537 14.9103 97.721 15.4272 96.74 15.7444L99.9768 21.0231L96.2636 21.1064ZM92.4991 13.7606L94.5385 13.7149C95.1414 13.7013 95.587 13.5438 95.8754 13.2421C96.1766 12.9402 96.3212 12.5199 96.3091 11.9812C96.2976 11.4681 96.1346 11.0676 95.8201 10.7795C95.5185 10.4911 95.0663 10.3536 94.4634 10.3672L92.424 10.4129L92.4991 13.7606Z" fill="white"/>
    <path d="M116.065 8.46081L115.996 11.0964L112.418 11.0027L112.134 21.8722L108.844 21.7861L109.129 10.9166L105.55 10.823L105.619 8.18739L116.065 8.46081Z" fill="white"/>
    <path d="M143.913 8.39982L143.738 11.0305L138.246 10.6656L138.057 13.5075L142.166 13.7806L141.997 16.3344L137.887 16.0614L137.525 21.5148L134.241 21.2966L135.137 7.81667L143.913 8.39982Z" fill="white"/>
    <path d="M155.511 9.42978L154.764 17.4779C154.69 18.2827 154.83 18.9207 155.186 19.3917C155.542 19.8628 156.103 20.1339 156.869 20.2051C157.636 20.2762 158.244 20.1135 158.693 19.7171C159.142 19.3207 159.404 18.7201 159.478 17.9153L160.225 9.86717L163.502 10.1712L162.757 18.2002C162.645 19.401 162.296 20.3929 161.708 21.1758C161.12 21.9588 160.372 22.5207 159.464 22.8617C158.569 23.2038 157.591 23.3257 156.531 23.2273C155.471 23.129 154.538 22.8363 153.733 22.3492C152.941 21.8506 152.342 21.1636 151.933 20.2882C151.526 19.4 151.378 18.3555 151.489 17.1547L152.234 9.12573L155.511 9.42978Z" fill="white"/>
    <path d="M183.255 25.8823L179.988 25.4834L175.535 16.5449L174.525 24.8164L171.258 24.4175L172.896 11.0075L176.162 11.4063L180.611 20.383L181.626 12.0734L184.892 12.4722L183.255 25.8823Z" fill="white"/>
    <path d="M200.453 15.6605C201.86 15.8753 203.048 16.342 204.016 17.0607C204.983 17.7793 205.675 18.6895 206.091 19.7912C206.521 20.8822 206.636 22.0872 206.435 23.4062C206.235 24.7125 205.767 25.8285 205.028 26.7541C204.303 27.6817 203.365 28.3432 202.214 28.7387C201.077 29.1362 199.81 29.2284 198.415 29.0156L193.412 28.2522L195.449 14.8971L200.453 15.6605ZM198.635 26.1681C199.866 26.3558 200.874 26.1658 201.662 25.5981C202.449 25.0304 202.937 24.1314 203.125 22.9011C203.312 21.6709 203.116 20.6611 202.535 19.8717C201.955 19.0824 201.05 18.5938 199.82 18.4061L198.279 18.171L197.094 25.933L198.635 26.1681Z" fill="white"/>
</svg>