<svg width="241" height="56" viewBox="0 0 241 56" fill="none" xmlns="http://www.w3.org/2000/svg">
    <path d="M18.8262 6.71144C18.8262 5.76085 19.5968 4.99023 20.5474 4.99023C21.498 4.99023 22.2686 5.76084 22.2686 6.71144V48.4651C22.2686 49.4157 21.498 50.1863 20.5474 50.1863C19.5968 50.1863 18.8262 49.4157 18.8262 48.4651V6.71144Z" fill="#E0E0E0"/>
    <path d="M25.7109 6.87551C25.7109 5.92491 26.4815 5.1543 27.4321 5.1543C28.3827 5.1543 29.1533 5.92491 29.1533 6.8755V48.2997C29.1533 49.2503 28.3827 50.0209 27.4321 50.0209C26.4815 50.0209 25.7109 49.2503 25.7109 48.2997V6.87551Z" fill="#E0E0E0"/>
    <path d="M32.5957 7.93019C32.5957 6.9796 33.3663 6.20898 34.3169 6.20898C35.2675 6.20898 36.0381 6.97959 36.0381 7.93019V47.2461C36.0381 48.1967 35.2675 48.9673 34.3169 48.9673C33.3663 48.9673 32.5957 48.1967 32.5957 47.2461V7.93019Z" fill="#E0E0E0"/>
    <path d="M39.4814 11.522C39.4814 10.5714 40.2521 9.80078 41.2027 9.80078C42.1532 9.80078 42.9239 10.5714 42.9239 11.522V43.6402C42.9239 44.5908 42.1532 45.3614 41.2027 45.3614C40.2521 45.3614 39.4814 44.5908 39.4814 43.6402V11.522Z" fill="#E0E0E0"/>
    <path d="M46.3662 17.2036C46.3662 16.253 47.1368 15.4824 48.0874 15.4824C49.038 15.4824 49.8086 16.253 49.8086 17.2036V37.9569C49.8086 38.9075 49.038 39.6781 48.0874 39.6781C47.1368 39.6781 46.3662 38.9075 46.3662 37.9569V17.2036Z" fill="#E0E0E0"/>
    <path d="M53.251 6.1841C53.251 5.2335 54.0216 4.46289 54.9722 4.46289C55.9228 4.46289 56.6934 5.2335 56.6934 6.1841V48.9754C56.6934 49.926 55.9228 50.6966 54.9722 50.6966C54.0216 50.6966 53.251 49.926 53.251 48.9754V6.1841Z" fill="#E0E0E0"/>
    <path d="M60.1357 3.61574C60.1357 2.66514 60.9064 1.89453 61.8569 1.89453C62.8075 1.89453 63.5782 2.66514 63.5782 3.61574V51.5624C63.5782 52.513 62.8075 53.2836 61.8569 53.2836C60.9064 53.2836 60.1357 52.513 60.1357 51.5624V3.61574Z" fill="#E0E0E0"/>
    <path d="M67.0205 18.2915C67.0205 17.3409 67.7911 16.5703 68.7417 16.5703C69.6923 16.5703 70.4629 17.3409 70.4629 18.2915V36.8871C70.4629 37.8377 69.6923 38.6083 68.7417 38.6083C67.7911 38.6083 67.0205 37.8377 67.0205 36.8871V18.2915Z" fill="#E0E0E0"/>
    <path d="M73.9043 8.16066C73.9043 7.21007 74.6749 6.43945 75.6255 6.43945C76.5761 6.43945 77.3467 7.21006 77.3467 8.16066V46.9989C77.3467 47.9495 76.5761 48.7201 75.6255 48.7201C74.6749 48.7201 73.9043 47.9495 73.9043 46.9989V8.16066Z" fill="#E0E0E0"/>
    <path d="M80.7891 6.15285C80.7891 5.20225 81.5597 4.43164 82.5103 4.43164C83.4609 4.43164 84.2315 5.20225 84.2315 6.15285V49.0265C84.2315 49.9771 83.4609 50.7477 82.5103 50.7477C81.5597 50.7477 80.7891 49.9771 80.7891 49.0265V6.15285Z" fill="#E0E0E0"/>
    <path d="M87.6738 12.231C87.6738 11.2804 88.4444 10.5098 89.395 10.5098C90.3456 10.5098 91.1162 11.2804 91.1162 12.231V42.9326C91.1162 43.8832 90.3456 44.6539 89.395 44.6539C88.4444 44.6539 87.6738 43.8832 87.6738 42.9327V12.231Z" fill="#E0E0E0"/>
    <path d="M94.5596 7.40285C94.5596 6.45225 95.3302 5.68164 96.2808 5.68164C97.2314 5.68164 98.002 6.45225 98.002 7.40285V47.7564C98.002 48.707 97.2314 49.4777 96.2808 49.4777C95.3302 49.4777 94.5596 48.707 94.5596 47.7564V7.40285Z" fill="#E0E0E0"/>
    <path d="M101.444 11.9165C101.444 10.9659 102.215 10.1953 103.166 10.1953C104.116 10.1953 104.887 10.9659 104.887 11.9165V43.2606C104.887 44.2112 104.116 44.9818 103.166 44.9818C102.215 44.9818 101.444 44.2112 101.444 43.2606V11.9165Z" fill="#E0E0E0"/>
    <path d="M108.329 13.2681C108.329 12.3175 109.1 11.5469 110.05 11.5469C111.001 11.5469 111.772 12.3175 111.772 13.2681V41.8944C111.772 42.845 111.001 43.6156 110.05 43.6156C109.1 43.6156 108.329 42.845 108.329 41.8944V13.2681Z" fill="#E0E0E0"/>
    <path d="M115.214 10.9458C115.214 9.99522 115.984 9.22461 116.935 9.22461C117.886 9.22461 118.656 9.99522 118.656 10.9458V44.2169C118.656 45.1675 117.886 45.9382 116.935 45.9382C115.984 45.9382 115.214 45.1675 115.214 44.2169V10.9458Z" fill="#E0E0E0"/>
    <path d="M122.099 16.645C122.099 15.6944 122.869 14.9238 123.82 14.9238C124.77 14.9238 125.541 15.6944 125.541 16.645V38.5183C125.541 39.4689 124.77 40.2395 123.82 40.2395C122.869 40.2395 122.099 39.4689 122.099 38.5183V16.645Z" fill="#E0E0E0"/>
    <path d="M128.983 15.3423C128.983 14.3917 129.754 13.6211 130.705 13.6211C131.655 13.6211 132.426 14.3917 132.426 15.3423V39.8345C132.426 40.7851 131.655 41.5557 130.705 41.5557C129.754 41.5557 128.983 40.7851 128.983 39.8345V15.3423Z" fill="#E0E0E0"/>
    <path d="M135.868 12.3618C135.868 11.4112 136.639 10.6406 137.589 10.6406C138.54 10.6406 139.311 11.4112 139.311 12.3618V42.8C139.311 43.7506 138.54 44.5212 137.589 44.5212C136.639 44.5212 135.868 43.7506 135.868 42.8V12.3618Z" fill="#E0E0E0"/>
    <path d="M142.753 7.15675C142.753 6.20616 143.524 5.43555 144.474 5.43555C145.425 5.43555 146.195 6.20616 146.195 7.15675V48.0045C146.195 48.9551 145.425 49.7257 144.474 49.7257C143.524 49.7257 142.753 48.9551 142.753 48.0045V7.15675Z" fill="#E0E0E0"/>
    <path d="M149.639 7.48683C149.639 6.53623 150.409 5.76562 151.36 5.76562C152.31 5.76562 153.081 6.53623 153.081 7.48683V47.6757C153.081 48.6263 152.31 49.3969 151.36 49.3969C150.409 49.3969 149.639 48.6263 149.639 47.6757V7.48683Z" fill="#E0E0E0"/>
    <path d="M156.523 19.7075C156.523 18.7569 157.294 17.9863 158.245 17.9863C159.195 17.9863 159.966 18.7569 159.966 19.7075V35.4537C159.966 36.4043 159.195 37.1749 158.245 37.1749C157.294 37.1749 156.523 36.4043 156.523 35.4537V19.7075Z" fill="#E0E0E0"/>
    <path d="M163.408 3.69777C163.408 2.74717 164.179 1.97656 165.129 1.97656C166.08 1.97656 166.851 2.74717 166.851 3.69777V51.4797C166.851 52.4303 166.08 53.2009 165.129 53.2009C164.179 53.2009 163.408 52.4303 163.408 51.4797V3.69777Z" fill="#E0E0E0"/>
    <path d="M170.293 13.3501C170.293 12.3995 171.064 11.6289 172.014 11.6289C172.965 11.6289 173.735 12.3995 173.735 13.3501V41.8118C173.735 42.7624 172.965 43.533 172.014 43.533C171.064 43.533 170.293 42.7623 170.293 41.8118V13.3501Z" fill="#E0E0E0"/>
    <path d="M177.177 18.6528C177.177 17.7022 177.947 16.9316 178.898 16.9316C179.849 16.9316 180.619 17.7023 180.619 18.6528V36.5237C180.619 37.4743 179.849 38.2449 178.898 38.2449C177.947 38.2449 177.177 37.4743 177.177 36.5237V18.6528Z" fill="#E0E0E0"/>
    <path d="M184.062 15.3247C184.062 14.3741 184.832 13.6035 185.783 13.6035C186.733 13.6035 187.504 14.3741 187.504 15.3247V39.8498C187.504 40.8004 186.733 41.571 185.783 41.571C184.832 41.571 184.062 40.8004 184.062 39.8498V15.3247Z" fill="#E0E0E0"/>
    <path d="M190.946 13.8267C190.946 12.8761 191.717 12.1055 192.667 12.1055C193.618 12.1055 194.389 12.8761 194.389 13.8267V41.333C194.389 42.2836 193.618 43.0542 192.667 43.0542C191.717 43.0542 190.946 42.2836 190.946 41.333V13.8267Z" fill="#E0E0E0"/>
    <path d="M197.831 15.606C197.831 14.6554 198.602 13.8848 199.552 13.8848C200.503 13.8848 201.273 14.6554 201.273 15.606V39.5546C201.273 40.5052 200.503 41.2758 199.552 41.2758C198.602 41.2758 197.831 40.5052 197.831 39.5546V15.606Z" fill="#E0E0E0"/>
    <path d="M204.717 8.75441C204.717 7.80382 205.487 7.0332 206.438 7.0332C207.389 7.0332 208.159 7.80381 208.159 8.75441V46.4233C208.159 47.3739 207.389 48.1445 206.438 48.1445C205.487 48.1445 204.717 47.3739 204.717 46.4233V8.75441Z" fill="#E0E0E0"/>
    <path d="M211.602 16.3482C211.602 15.3976 212.372 14.627 213.323 14.627C214.273 14.627 215.044 15.3976 215.044 16.3482V38.8144C215.044 39.765 214.273 40.5356 213.323 40.5356C212.372 40.5356 211.602 39.765 211.602 38.8144V16.3482Z" fill="#E0E0E0"/>
    <path d="M218.486 15.8032C218.486 14.8526 219.257 14.082 220.208 14.082C221.158 14.082 221.929 14.8526 221.929 15.8032V39.3566C221.929 40.3072 221.158 41.0778 220.208 41.0778C219.257 41.0778 218.486 40.3072 218.486 39.3566V15.8032Z" fill="#E0E0E0"/>
</svg>
