<svg width="242" height="39" viewBox="0 0 242 39" fill="none" xmlns="http://www.w3.org/2000/svg">
    <path d="M20.6701 14.2384L19.1743 28.1192L15.234 28.7053L11.794 20.2282L10.8941 29.3508L6.9538 29.9369L1.57792 17.0783L5.06133 16.5602L8.43072 26.0011L9.36326 15.9203L12.9418 15.388L16.6729 24.7751L17.1676 14.7594L20.6701 14.2384Z" fill="white"/>
    <path d="M33.1271 12.7123L34.7393 26.1253L31.472 26.5181L29.8598 13.105L33.1271 12.7123Z" fill="white"/>
    <path d="M49.9893 24.6108C49.0061 24.7067 48.1094 24.633 47.2994 24.3897C46.4893 24.1464 45.8176 23.735 45.2841 23.1554C44.7634 22.5745 44.4474 21.8448 44.3359 20.9662L47.8219 20.6263C47.9215 21.1193 48.1313 21.4856 48.4511 21.7251C48.7697 21.9518 49.1652 22.0422 49.6377 21.9961C50.1229 21.9488 50.4954 21.8029 50.7551 21.5585C51.0136 21.3012 51.1236 20.9747 51.085 20.5788C51.0526 20.2468 50.9109 19.9835 50.6599 19.7888C50.4217 19.5929 50.1297 19.4409 49.784 19.3328C49.4511 19.2235 48.9759 19.1087 48.3583 18.9885C47.4638 18.805 46.729 18.6059 46.1538 18.3913C45.5786 18.1767 45.0675 17.8269 44.6206 17.342C44.1737 16.857 43.9092 16.1932 43.827 15.3504C43.705 14.0991 44.0631 13.078 44.9012 12.2873C45.7381 11.4839 46.8844 11.0112 48.3401 10.8692C49.8213 10.7248 51.05 10.9659 52.0264 11.5926C53.0015 12.2065 53.5825 13.1424 53.7697 14.4003L50.2262 14.7458C50.1584 14.3142 49.9657 13.9914 49.6484 13.7774C49.3298 13.5506 48.9407 13.4597 48.481 13.5045C48.0851 13.5431 47.7765 13.6827 47.5551 13.9235C47.3324 14.1514 47.2403 14.4633 47.2789 14.8592C47.3212 15.2933 47.5585 15.6118 47.9908 15.8146C48.4231 16.0173 49.087 16.2169 49.9827 16.4131C50.8797 16.6221 51.6094 16.8346 52.1718 17.0504C52.747 17.2651 53.2575 17.6084 53.7031 18.0806C54.1487 18.5528 54.4108 19.1911 54.4892 19.9955C54.5639 20.7617 54.4339 21.4769 54.099 22.1412C53.777 22.8042 53.2637 23.357 52.5592 23.7995C51.8547 24.242 50.998 24.5125 49.9893 24.6108Z" fill="white"/>
    <path d="M74.9919 8.90958L75.9255 22.3869L72.6426 22.6143L72.2582 17.066L67.1514 17.4197L67.5358 22.9681L64.2528 23.1955L63.3192 9.71814L66.6022 9.49073L66.9679 14.7703L72.0747 14.4166L71.709 9.13699L74.9919 8.90958Z" fill="white"/>
    <path d="M89.362 19.1543L93.6688 18.969L93.778 21.5069L86.1834 21.8336L85.6028 8.33647L88.8906 8.19504L89.362 19.1543Z" fill="white"/>
    <path d="M105.638 7.6555L105.941 21.1617L102.651 21.2355L102.348 7.7293L105.638 7.6555Z" fill="white"/>
    <path d="M121.266 21.1347C120.278 21.1347 119.393 20.9743 118.61 20.6536C117.827 20.3329 117.199 19.8582 116.724 19.2295C116.262 18.6009 116.018 17.8439 115.993 16.9587H119.495C119.547 17.459 119.72 17.8439 120.015 18.1133C120.31 18.3699 120.695 18.4982 121.17 18.4982C121.657 18.4982 122.042 18.3892 122.324 18.1711C122.607 17.9401 122.748 17.6258 122.748 17.2281C122.748 16.8945 122.632 16.6187 122.401 16.4006C122.183 16.1825 121.907 16.0028 121.574 15.8617C121.253 15.7206 120.791 15.5602 120.188 15.3806C119.316 15.1112 118.604 14.8418 118.052 14.5723C117.5 14.3029 117.026 13.9052 116.628 13.3792C116.23 12.8532 116.031 12.1668 116.031 11.32C116.031 10.0627 116.487 9.08125 117.398 8.37562C118.309 7.65715 119.495 7.29792 120.958 7.29792C122.446 7.29792 123.646 7.65715 124.557 8.37562C125.468 9.08125 125.955 10.0691 126.019 11.3393H122.459C122.433 10.9031 122.273 10.5631 121.978 10.3193C121.683 10.0627 121.304 9.93442 120.842 9.93442C120.445 9.93442 120.124 10.0435 119.88 10.2616C119.636 10.4668 119.515 10.7683 119.515 11.1661C119.515 11.6023 119.72 11.9423 120.13 12.186C120.541 12.4298 121.182 12.6928 122.055 12.975C122.927 13.2701 123.633 13.5524 124.172 13.8218C124.723 14.0912 125.198 14.4825 125.596 14.9957C125.994 15.5089 126.192 16.1696 126.192 16.9779C126.192 17.7477 125.994 18.4469 125.596 19.0756C125.211 19.7042 124.646 20.2046 123.902 20.5766C123.158 20.9487 122.279 21.1347 121.266 21.1347Z" fill="white"/>
    <path d="M145.669 7.87097L145.6 10.5066L142.022 10.4129L141.737 21.2823L138.448 21.1962L138.732 10.3268L135.154 10.2331L135.223 7.59755L145.669 7.87097Z" fill="white"/>
    <path d="M175.456 9.43498L175.281 12.0657L169.789 11.7007L169.6 14.5426L173.709 14.8157L173.54 17.3696L169.43 17.0965L169.068 22.5499L165.784 22.3317L166.68 8.85183L175.456 9.43498Z" fill="white"/>
    <path d="M188.054 10.4649L187.307 18.513C187.233 19.3179 187.373 19.9558 187.729 20.4269C188.085 20.898 188.646 21.1691 189.412 21.2402C190.179 21.3113 190.786 21.1487 191.236 20.7523C191.685 20.3559 191.947 19.7553 192.021 18.9504L192.768 10.9023L196.045 11.2064L195.3 19.2353C195.188 20.4362 194.839 21.428 194.251 22.211C193.663 22.9939 192.915 23.5559 192.007 23.8969C191.112 24.239 190.134 24.3609 189.074 24.2625C188.013 24.1641 187.081 23.8714 186.276 23.3844C185.484 22.8858 184.884 22.1988 184.476 21.3234C184.069 20.4352 183.921 19.3907 184.032 18.1898L184.777 10.1609L188.054 10.4649Z" fill="white"/>
    <path d="M216.079 27.1088L212.812 26.71L208.359 17.7715L207.349 26.0429L204.083 25.6441L205.72 12.2341L208.986 12.6329L213.435 21.6096L214.45 13.2999L217.716 13.6988L216.079 27.1088Z" fill="white"/>
    <path d="M232.915 15.8519C234.323 16.0667 235.511 16.5334 236.478 17.2521C237.446 17.9707 238.138 18.8809 238.554 19.9826C238.984 21.0736 239.099 22.2786 238.898 23.5976C238.698 24.9039 238.23 26.0199 237.491 26.9455C236.766 27.8731 235.828 28.5346 234.677 28.9301C233.539 29.3276 232.273 29.4199 230.878 29.207L225.875 28.4436L227.912 15.0885L232.915 15.8519ZM231.098 26.3595C232.328 26.5472 233.337 26.3572 234.125 25.7895C234.912 25.2218 235.4 24.3228 235.587 23.0925C235.775 21.8623 235.579 20.8525 234.998 20.0631C234.418 19.2738 233.513 18.7852 232.282 18.5975L230.741 18.3624L229.557 26.1244L231.098 26.3595Z" fill="white"/>
</svg>
