<svg width="18" height="16" viewBox="0 0 18 16" fill="none" xmlns="http://www.w3.org/2000/svg">
    <path d="M4.56417 2.771C4.41416 3.00843 4.21402 3.21016 3.97778 3.36203C3.74155 3.51391 3.47494 3.61225 3.19667 3.65017C2.88 3.69517 2.56583 3.7435 2.25167 3.796C1.37417 3.94184 0.75 4.71434 0.75 5.6035V12.6252C0.75 13.1225 0.947544 13.5994 1.29917 13.951C1.65081 14.3026 2.12772 14.5002 2.625 14.5002H15.125C15.6223 14.5002 16.0992 14.3026 16.4508 13.951C16.8025 13.5994 17 13.1225 17 12.6252V5.6035C17 4.71434 16.375 3.94184 15.4983 3.796C15.1839 3.74362 14.8689 3.695 14.5533 3.65017C14.2752 3.61214 14.0088 3.51374 13.7727 3.36187C13.5366 3.21 13.3366 3.00833 13.1867 2.771L12.5017 1.67434C12.3478 1.42442 12.136 1.21525 11.8842 1.06453C11.6324 0.91382 11.348 0.825998 11.055 0.808504C9.60271 0.730499 8.14729 0.730499 6.695 0.808504C6.40205 0.825998 6.11762 0.91382 5.8658 1.06453C5.61398 1.21525 5.40218 1.42442 5.24833 1.67434L4.56417 2.771Z" stroke="#333333" stroke-width="1.5" stroke-linecap="round" stroke-linejoin="round"/>
    <path d="M12.625 8.25C12.625 9.24456 12.2299 10.1984 11.5266 10.9016C10.8234 11.6049 9.86956 12 8.875 12C7.88044 12 6.92661 11.6049 6.22335 10.9016C5.52009 10.1984 5.125 9.24456 5.125 8.25C5.125 7.25544 5.52009 6.30161 6.22335 5.59835C6.92661 4.89509 7.88044 4.5 8.875 4.5C9.86956 4.5 10.8234 4.89509 11.5266 5.59835C12.2299 6.30161 12.625 7.25544 12.625 8.25ZM14.5 6.375H14.5067V6.38167H14.5V6.375Z" stroke="#333333" stroke-width="1.5" stroke-linecap="round" stroke-linejoin="round"/>
</svg>
