<svg width="20" height="20" viewBox="0 0 20 20" fill="none" xmlns="http://www.w3.org/2000/svg">    <path d="M15.75 5.25V8.25M15.75 8.25V11.25M15.75 8.25H18.75M15.75 8.25H12.75M10.5 4.125C10.5 5.02011 10.1444 5.87855 9.51149 6.51149C8.87855 7.14442 8.02011 7.5 7.125 7.5C6.22989 7.5 5.37145 7.14442 4.73851 6.51149C4.10558 5.87855 3.75 5.02011 3.75 4.125C3.75 3.22989 4.10558 2.37145 4.73851 1.73851C5.37145 1.10558 6.22989 0.75 7.125 0.75C8.02011 0.75 8.87855 1.10558 9.51149 1.73851C10.1444 2.37145 10.5 3.22989 10.5 4.125ZM0.75 16.985V16.875C0.75 15.1842 1.42165 13.5627 2.61719 12.3672C3.81274 11.1716 5.43424 10.5 7.125 10.5C8.81576 10.5 10.4373 11.1716 11.6328 12.3672C12.8284 13.5627 13.5 15.1842 13.5 16.875V16.984C11.5755 18.1431 9.37061 18.7538 7.124 18.75C4.793 18.75 2.612 18.105 0.75 16.984V16.985Z" stroke="#19B23F" stroke-width="1.5" stroke-linecap="round" stroke-linejoin="round"/></svg>