<svg width="12" height="12" viewBox="0 0 12 12" fill="none" xmlns="http://www.w3.org/2000/svg">
    <path fill-rule="evenodd" clip-rule="evenodd" d="M7.58333 7C8.35688 7 9.09875 7.30729 9.64573 7.85427C10.1927 8.40125 10.5 9.14312 10.5 9.91667V11.0833C10.5 11.238 10.4385 11.3864 10.3291 11.4958C10.2197 11.6052 10.0714 11.6667 9.91667 11.6667C9.76196 11.6667 9.61358 11.6052 9.50419 11.4958C9.39479 11.3864 9.33333 11.238 9.33333 11.0833V9.91667C9.33333 9.45254 9.14896 9.00742 8.82077 8.67923C8.49258 8.35104 8.04746 8.16667 7.58333 8.16667H2.91667C2.45254 8.16667 2.00742 8.35104 1.67923 8.67923C1.35104 9.00742 1.16667 9.45254 1.16667 9.91667V11.0833C1.16667 11.238 1.10521 11.3864 0.995812 11.4958C0.886416 11.6052 0.738043 11.6667 0.583333 11.6667C0.428624 11.6667 0.280251 11.6052 0.170854 11.4958C0.0614581 11.3864 0 11.238 0 11.0833V9.91667C0 9.14312 0.307291 8.40125 0.854272 7.85427C1.40125 7.30729 2.14312 7 2.91667 7H7.58333ZM10.7415 4.13058C10.8462 4.02485 10.9874 3.96315 11.1362 3.9581C11.2849 3.95305 11.4299 4.00505 11.5416 4.10344C11.6532 4.20183 11.7231 4.33917 11.7368 4.48736C11.7505 4.63555 11.707 4.78338 11.6153 4.90058L11.5663 4.956L9.91667 6.60567C9.81622 6.7061 9.68258 6.76644 9.54081 6.77535C9.39905 6.78427 9.2589 6.74115 9.14667 6.65408L9.09183 6.60567L8.267 5.78083C8.16127 5.6761 8.09956 5.53492 8.09452 5.38618C8.08947 5.23744 8.14146 5.0924 8.23985 4.98074C8.33824 4.86909 8.47559 4.79926 8.62378 4.78555C8.77197 4.77184 8.9198 4.81529 9.037 4.907L9.09183 4.95542L9.50425 5.36842L10.7415 4.13058ZM5.25 0C6.02355 0 6.76541 0.307291 7.31239 0.854272C7.85938 1.40125 8.16667 2.14312 8.16667 2.91667C8.16667 3.69021 7.85938 4.43208 7.31239 4.97906C6.76541 5.52604 6.02355 5.83333 5.25 5.83333C4.47645 5.83333 3.73459 5.52604 3.18761 4.97906C2.64062 4.43208 2.33333 3.69021 2.33333 2.91667C2.33333 2.14312 2.64062 1.40125 3.18761 0.854272C3.73459 0.307291 4.47645 0 5.25 0ZM5.25 1.16667C5.02019 1.16667 4.79262 1.21193 4.5803 1.29988C4.36798 1.38782 4.17507 1.51673 4.01256 1.67923C3.85006 1.84173 3.72116 2.03465 3.63321 2.24697C3.54526 2.45929 3.5 2.68685 3.5 2.91667C3.5 3.14648 3.54526 3.37404 3.63321 3.58636C3.72116 3.79868 3.85006 3.9916 4.01256 4.1541C4.17507 4.31661 4.36798 4.44551 4.5803 4.53346C4.79262 4.6214 5.02019 4.66667 5.25 4.66667C5.71413 4.66667 6.15925 4.48229 6.48744 4.1541C6.81563 3.82591 7 3.3808 7 2.91667C7 2.45254 6.81563 2.00742 6.48744 1.67923C6.15925 1.35104 5.71413 1.16667 5.25 1.16667Z" fill="white"/>
</svg>
