<svg width="36" height="50" viewBox="0 0 36 50" fill="none" xmlns="http://www.w3.org/2000/svg">
    <path d="M17.957 40.4141V47.1488" stroke="white" stroke-width="4.48984" stroke-linecap="round" stroke-linejoin="round"/>
    <path d="M33.674 20.2109V24.7008C33.674 28.8685 32.0184 32.8655 29.0714 35.8126C26.1243 38.7596 22.1273 40.4152 17.9596 40.4152C13.7918 40.4152 9.7948 38.7596 6.84777 35.8126C3.90074 32.8655 2.24512 28.8685 2.24512 24.7008V20.2109" stroke="white" stroke-width="4.48984" stroke-linecap="round" stroke-linejoin="round"/>
    <path d="M24.6932 8.9789C24.6932 5.2594 21.6779 2.24414 17.9584 2.24414C14.2389 2.24414 11.2236 5.2594 11.2236 8.9789V24.6933C11.2236 28.4129 14.2389 31.4281 17.9584 31.4281C21.6779 31.4281 24.6932 28.4129 24.6932 24.6933V8.9789Z" stroke="white" stroke-width="4.48984" stroke-linecap="round" stroke-linejoin="round"/>
</svg>
