<svg width="15" height="17" viewBox="0 0 15 17" fill="none" xmlns="http://www.w3.org/2000/svg">
<path d="M7.5 16.6667L7.29167 14.1667H7.08333C5.11111 14.1667 3.4375 13.4792 2.0625 12.1042C0.6875 10.7292 0 9.05556 0 7.08333C0 5.11111 0.6875 3.4375 2.0625 2.0625C3.4375 0.6875 5.11111 0 7.08333 0C8.06944 0 8.98972 0.183889 9.84417 0.551667C10.6986 0.919444 11.4486 1.42639 12.0942 2.0725C12.7397 2.71861 13.2464 3.46861 13.6142 4.3225C13.9819 5.17639 14.1661 6.09667 14.1667 7.08333C14.1667 8.125 13.9967 9.125 13.6567 10.0833C13.3167 11.0417 12.8511 11.9306 12.26 12.75C11.6689 13.5694 10.9675 14.3125 10.1558 14.9792C9.34417 15.6458 8.45889 16.2083 7.5 16.6667ZM9.16667 13.625C10.1528 12.7917 10.955 11.8161 11.5733 10.6983C12.1917 9.58056 12.5006 8.37556 12.5 7.08333C12.5 5.56944 11.9756 4.28833 10.9267 3.24C9.87778 2.19167 8.59667 1.66722 7.08333 1.66667C5.57 1.66611 4.28889 2.19056 3.24 3.24C2.19111 4.28944 1.66667 5.57056 1.66667 7.08333C1.66667 8.59611 2.19111 9.8775 3.24 10.9275C4.28889 11.9775 5.57 12.5017 7.08333 12.5H9.16667V13.625ZM7.0625 11.6458C7.29861 11.6458 7.5 11.5625 7.66667 11.3958C7.83333 11.2292 7.91667 11.0278 7.91667 10.7917C7.91667 10.5556 7.83333 10.3542 7.66667 10.1875C7.5 10.0208 7.29861 9.9375 7.0625 9.9375C6.82639 9.9375 6.625 10.0208 6.45833 10.1875C6.29167 10.3542 6.20833 10.5556 6.20833 10.7917C6.20833 11.0278 6.29167 11.2292 6.45833 11.3958C6.625 11.5625 6.82639 11.6458 7.0625 11.6458ZM6.45833 9H7.70833C7.70833 8.58333 7.75 8.29167 7.83333 8.125C7.91667 7.95833 8.18056 7.65278 8.625 7.20833C8.875 6.95833 9.08333 6.6875 9.25 6.39583C9.41667 6.10417 9.5 5.79167 9.5 5.45833C9.5 4.75 9.26056 4.21889 8.78167 3.865C8.30278 3.51111 7.73667 3.33389 7.08333 3.33333C6.47222 3.33333 5.95833 3.50361 5.54167 3.84417C5.125 4.18472 4.83333 4.59778 4.66667 5.08333L5.83333 5.54167C5.90278 5.30556 6.03472 5.07306 6.22917 4.84417C6.42361 4.61528 6.70833 4.50056 7.08333 4.5C7.45833 4.49944 7.73972 4.60361 7.9275 4.8125C8.11528 5.02139 8.20889 5.25056 8.20833 5.5C8.20833 5.73611 8.13889 5.94806 8 6.13583C7.86111 6.32361 7.69444 6.51444 7.5 6.70833C7.01389 7.125 6.71889 7.455 6.615 7.69833C6.51111 7.94167 6.45889 8.37556 6.45833 9Z" fill="#333333"/>
</svg>
