<svg width="24" height="24" viewBox="0 0 24 24" fill="none" xmlns="http://www.w3.org/2000/svg">
    <path d="M1.44974 20.2668C1.44974 19.6904 1.8822 19.51 2.05509 19.4299L8.42145 16.4251C8.87777 16.2156 9.19274 15.7835 9.25399 15.2851C9.31561 14.7866 9.11445 14.2918 8.72264 13.9775C7.21668 12.7682 6.51499 10.1104 6.51499 8.69449V5.07169C6.51499 3.55682 9.15178 1.44999 11.5921 1.44999C14.0539 1.44999 16.6646 3.52383 16.6646 5.07169V8.69485C16.6646 10.0894 16.0846 12.7574 14.5294 13.9818C14.3343 14.1354 14.182 14.3365 14.0869 14.5658C13.9918 14.7951 13.9573 15.045 13.9864 15.2916C14.0459 15.7936 14.3623 16.2275 14.8212 16.4385L16.994 17.4694L17.3521 16.0223L15.4264 15.1212C17.4348 13.5403 18.1143 10.4352 18.1143 8.69483V5.07165C18.1143 2.67192 14.7929 0 11.5921 0C8.39101 0 5.06516 2.67196 5.06516 5.07165V8.6948C5.06516 10.2778 5.78751 13.4809 7.81506 15.1085L1.4487 18.1132C1.4487 18.1132 0 18.7588 0 19.5625V21.7382C0 22.5389 0.648778 23.1874 1.44865 23.1874H17.3945V21.7374L1.44976 21.7382L1.44974 20.2668ZM22.4688 18.8437H20.2941V16.6687C20.2941 16.2682 19.9693 15.9437 19.5692 15.9437C19.1691 15.9437 18.8443 16.2682 18.8443 16.6687V18.8437H16.6696C16.2695 18.8437 15.9447 19.1681 15.9447 19.5687C15.9447 19.9689 16.2695 20.2937 16.6696 20.2937H18.8443V22.4687C18.8443 22.8689 19.1691 23.1937 19.5692 23.1937C19.9693 23.1937 20.2941 22.8689 20.2941 22.4687V20.2937H22.4688C22.8689 20.2937 23.1937 19.9689 23.1937 19.5687C23.1937 19.1681 22.8693 18.8437 22.4688 18.8437Z" fill="#FD7839"/>
</svg>
